HIERARCHY
ROOT Hips
{
	OFFSET 0.00 0.00 0.00
	CHANNELS 6 Xposition Yposition Zposition Zrotation Xrotation Yrotation
		JOINT Spine
		{
			OFFSET 0.00 10.00 0.00
			CHANNELS 3 Zrotation Xrotation Yrotation
			JOINT Spine1
			{
				OFFSET 0.00 10.00 0.00
				CHANNELS 3 Zrotation Xrotation Yrotation
				JOINT Spine2
				{
					OFFSET 0.00 10.00 0.00
					CHANNELS 3 Zrotation Xrotation Yrotation
					JOINT Neck
					{
						OFFSET 0.00 10.00 0.00
						CHANNELS 3 Zrotation Xrotation Yrotation
						JOINT Head
						{
							OFFSET 0.00 10.00 0.00
							CHANNELS 3 Zrotation Xrotation Yrotation
						End Site
						{
							OFFSET 0.00 0.00 0.00
						}
					}
					End Site
					{
						OFFSET 0.00 0.00 0.00
					}
				}
					JOINT LeftArm
					{
						OFFSET 10.00 0.00 0.00
						CHANNELS 3 Zrotation Xrotation Yrotation
						JOINT LeftForeArm
						{
							OFFSET 20.00 0.00 0.00
							CHANNELS 3 Zrotation Xrotation Yrotation
							JOINT LeftHand
							{
								OFFSET 20.00 0.00 0.00
								CHANNELS 3 Zrotation Xrotation Yrotation
							End Site
							{
								OFFSET 0.00 0.00 0.00
							}
						}
						End Site
						{
							OFFSET 0.00 0.00 0.00
						}
					}
					End Site
					{
						OFFSET 0.00 0.00 0.00
					}
				}
					JOINT RightArm
					{
						OFFSET -10.00 0.00 0.00
						CHANNELS 3 Zrotation Xrotation Yrotation
						JOINT RightForeArm
						{
							OFFSET -20.00 0.00 0.00
							CHANNELS 3 Zrotation Xrotation Yrotation
							JOINT RightHand
							{
								OFFSET -20.00 0.00 0.00
								CHANNELS 3 Zrotation Xrotation Yrotation
							End Site
							{
								OFFSET 0.00 0.00 0.00
							}
						}
						End Site
						{
							OFFSET 0.00 0.00 0.00
						}
					}
					End Site
					{
						OFFSET 0.00 0.00 0.00
					}
				}
				End Site
				{
					OFFSET 0.00 0.00 0.00
				}
			}
			End Site
			{
				OFFSET 0.00 0.00 0.00
			}
		}
		End Site
		{
			OFFSET 0.00 0.00 0.00
		}
	}
		JOINT LeftUpLeg
		{
			OFFSET 5.00 -10.00 0.00
			CHANNELS 3 Zrotation Xrotation Yrotation
			JOINT LeftLeg
			{
				OFFSET 0.00 -20.00 0.00
				CHANNELS 3 Zrotation Xrotation Yrotation
				JOINT LeftFoot
				{
					OFFSET 0.00 -20.00 0.00
					CHANNELS 3 Zrotation Xrotation Yrotation
					JOINT LeftToeBase
					{
						OFFSET 0.00 -5.00 5.00
						CHANNELS 3 Zrotation Xrotation Yrotation
					End Site
					{
						OFFSET 0.00 0.00 0.00
					}
				}
				End Site
				{
					OFFSET 0.00 0.00 0.00
				}
			}
			End Site
			{
				OFFSET 0.00 0.00 0.00
			}
		}
		End Site
		{
			OFFSET 0.00 0.00 0.00
		}
	}
		JOINT RightUpLeg
		{
			OFFSET -5.00 -10.00 0.00
			CHANNELS 3 Zrotation Xrotation Yrotation
			JOINT RightLeg
			{
				OFFSET 0.00 -20.00 0.00
				CHANNELS 3 Zrotation Xrotation Yrotation
				JOINT RightFoot
				{
					OFFSET 0.00 -20.00 0.00
					CHANNELS 3 Zrotation Xrotation Yrotation
					JOINT RightToeBase
					{
						OFFSET 0.00 -5.00 5.00
						CHANNELS 3 Zrotation Xrotation Yrotation
					End Site
					{
						OFFSET 0.00 0.00 0.00
					}
				}
				End Site
				{
					OFFSET 0.00 0.00 0.00
				}
			}
			End Site
			{
				OFFSET 0.00 0.00 0.00
			}
		}
		End Site
		{
			OFFSET 0.00 0.00 0.00
		}
	}
	End Site
	{
		OFFSET 0.00 0.00 0.00
	}
}
MOTION
Frames: 23
Frame Time: 0.034483
-0.0579 0.1424 -0.1503 -0.9905 -0.1341 -15.4161 8.0924 1.4720 0.1041 8.0924 1.4720 0.1041 -77.4411 -5.3313 4.2754 -37.5408 57.1506 -20.9738 37.0365 -55.0462 -19.8008 -145.5962 -80.4939 -29.3692 102.9436 78.0973 -65.7170 55.6447 21.5124 -39.5944 123.5297 -63.6020 36.8312 179.5303 -179.2206 62.1504 -68.3409 41.9908 58.9615 -10.1908 -9.7951 0.8755 -12.5762 17.3473 -1.9261 20.0172 21.4756 3.8336 5.2449 24.0024 -24.3183 3.5858 -1.1188 -0.0350 14.1364 20.3748 2.5529 15.9059 -38.2698 -5.5501 -0.8653 2.8630 33.6269
-0.0631 0.1430 -0.1470 -0.9676 -0.1263 -14.8779 7.8048 2.3394 0.1596 7.8048 2.3394 0.1596 -76.9068 -6.6908 5.3154 -37.1708 57.6551 -20.9699 37.2403 -55.2592 -20.0041 -144.7176 -78.6695 -29.2140 104.6001 79.6899 -65.6418 58.1453 23.3209 -40.7289 121.1685 -56.1038 33.4459 -178.9884 178.0821 55.6180 -70.0999 41.4892 56.7311 -9.4284 -9.9984 0.8266 -13.4118 15.4031 -1.8219 20.3378 18.5928 3.3636 4.6010 26.1663 -19.6149 3.6991 -0.9011 -0.0291 14.0848 19.5804 2.4423 15.6210 -37.8708 -5.3885 -1.5694 4.9048 35.4685
-0.0639 0.1434 -0.1471 -0.9376 -0.1225 -14.8827 7.8093 2.4489 0.1672 7.8093 2.4489 0.1672 -76.9332 -6.2704 4.9836 -37.1470 58.0922 -21.1412 37.3131 -54.7963 -19.8525 -144.5734 -78.4454 -29.2240 104.6922 79.7691 -65.6284 58.5250 23.4618 -40.6695 120.5632 -54.9293 33.0513 -176.4148 173.4120 57.0727 -70.4752 41.4669 56.3703 -9.1542 -9.9424 0.7979 -13.6428 15.3888 -1.8518 20.4296 18.6245 3.3849 4.2600 26.5928 -17.8876 3.9017 -0.9036 -0.0308 14.1529 19.1757 2.4026 15.6231 -37.8129 -5.3804 -1.9709 5.8654 37.1204
-0.0656 0.1435 -0.1472 -0.8481 -0.1114 -14.9607 7.8334 2.5567 0.1751 7.8334 2.5567 0.1751 -77.0458 -5.8607 4.6672 -36.9312 58.8935 -21.3520 37.2410 -54.2473 -19.5849 -144.4350 -77.4332 -28.8374 105.4632 81.3229 -66.3379 57.8970 23.6840 -41.5203 120.1531 -52.9828 32.0123 -173.5707 168.4282 57.9988 -71.0290 40.5174 54.6934 -9.0584 -9.7785 0.7765 -13.4328 14.9013 -1.7646 20.7660 17.6839 3.2653 4.5069 26.1132 -19.2606 4.3790 -0.8781 -0.0336 13.9957 19.1010 2.3662 15.4607 -37.7290 -5.3112 -2.0327 5.9865 37.4825
-0.0678 0.1445 -0.1466 -0.7274 -0.0963 -15.0756 7.9177 2.5587 0.1771 7.9177 2.5587 0.1771 -77.0336 -5.8060 4.6225 -37.3160 59.2770 -21.7503 37.7263 -53.1221 -19.3851 -143.6953 -74.6113 -28.0526 105.8331 81.9100 -66.5297 58.0951 23.7852 -41.5321 120.0490 -51.0751 30.8137 -172.4769 166.4014 57.7464 -70.8878 40.1078 54.2996 -8.9643 -9.8276 0.7723 -13.4089 13.5779 -1.6035 20.9634 15.9915 2.9772 4.2765 25.2115 -18.9572 4.5386 -0.9438 -0.0374 13.9567 18.4368 2.2761 15.3000 -37.9426 -5.2874 -2.4645 7.3239 37.1535
-0.0683 0.1451 -0.1463 -0.7067 -0.0943 -15.2073 7.8710 2.5678 0.1767 7.8710 2.5678 0.1767 -77.0401 -5.5693 4.4344 -37.3783 59.6125 -21.9335 38.1243 -52.6613 -19.4083 -143.3382 -72.1252 -27.1290 108.2966 85.1000 -67.1125 57.4253 24.0384 -42.4801 119.9808 -50.6059 30.5451 -171.6221 164.7833 57.4726 -71.4002 40.1653 53.9332 -8.8157 -9.8794 0.7634 -13.5152 12.8757 -1.5320 20.9966 15.3436 2.8598 4.4558 25.3064 -19.6624 4.7297 -1.1262 -0.0465 14.0281 17.7418 2.2002 15.2026 -38.1760 -5.2881 -2.5966 7.7918 36.8135
-0.0688 0.1454 -0.1481 -0.6562 -0.0879 -15.2635 7.8466 2.3988 0.1645 7.8466 2.3988 0.1645 -77.2691 -5.2654 4.2096 -37.7646 59.9825 -22.3335 38.4849 -51.6602 -19.1816 -142.1474 -65.5368 -24.8923 115.5750 95.4104 -69.4074 56.4969 25.5441 -45.7499 119.0998 -49.0549 30.0321 -168.3174 159.3717 58.6856 -70.5363 38.1142 52.0675 -8.7855 -9.9571 0.7668 -13.2699 12.3672 -1.4441 21.7354 14.9801 2.8918 4.4785 24.8589 -20.1206 4.8970 -1.1962 -0.0512 14.1739 17.7614 2.2258 15.4158 -38.0555 -5.3449 -2.5776 7.7470 36.7605
-0.0691 0.1458 -0.1494 -0.6130 -0.0825 -15.3225 7.8286 2.2974 0.1572 7.8286 2.2974 0.1572 -77.4093 -5.0245 4.0270 -37.9142 60.2458 -22.5425 38.6222 -51.2098 -19.0651 -141.3119 -62.5798 -24.0883 120.5010 102.0824 -70.5073 57.0523 26.5641 -46.9501 118.7574 -48.4522 29.8273 -166.6465 156.8437 59.4861 -70.3728 37.6097 51.5577 -8.7700 -10.0037 0.7691 -13.0172 12.1891 -1.3958 22.1949 14.9191 2.9423 4.6239 24.3655 -21.1847 4.9918 -1.2259 -0.0534 14.2394 17.7114 2.2298 15.5013 -38.0499 -5.3740 -2.5476 7.6835 36.6421
-0.0695 0.1460 -0.1513 -0.5893 -0.0782 -15.1239 7.8035 3.0344 0.2070 7.8035 3.0344 0.2070 -77.3753 -5.7977 4.6442 -38.3279 60.1917 -22.7766 39.8910 -50.3828 -19.3738 -141.1790 -63.1330 -24.4309 126.1038 110.3629 -72.3309 56.7635 27.9963 -49.5382 118.7769 -47.7647 29.3602 -166.1218 156.0082 59.6065 -70.9202 38.2300 51.8947 -8.7689 -10.2899 0.7911 -12.9214 11.9102 -1.3535 22.1852 14.7940 2.9161 4.4117 23.5172 -20.9673 5.2361 -1.2089 -0.0553 14.2687 17.7080 2.2340 15.4760 -38.0590 -5.3665 -2.5474 7.6881 36.6184
-0.0703 0.1457 -0.1516 -0.5409 -0.0698 -14.7049 7.5875 3.6313 0.2409 7.5875 3.6313 0.2409 -77.1660 -6.8968 5.5047 -38.2873 60.2383 -22.7721 40.8335 -50.1876 -19.7764 -141.3620 -59.2435 -22.5456 132.4575 118.9801 -73.5522 56.8647 28.0207 -49.4858 118.3981 -42.4995 26.1040 -165.4719 153.8161 57.4542 -73.9515 39.0541 50.4456 -8.8407 -10.4076 0.8067 -12.8811 11.1990 -1.2682 22.4488 13.8713 2.7657 4.0824 23.4689 -19.4725 5.7744 -1.1279 -0.0569 14.2076 17.8511 2.2426 15.7607 -37.5732 -5.3914 -2.6823 7.7030 38.3512
-0.0749 0.1458 -0.1463 -0.5085 -0.0615 -13.8021 6.7728 3.2914 0.1948 6.7728 3.2914 0.1948 -76.5259 -8.4633 6.6796 -37.5957 60.2473 -22.3445 40.6579 -51.0644 -20.0713 -140.6048 -57.3376 -22.1510 150.7322 141.2154 -73.1350 58.8534 29.7424 -50.4171 117.3398 -34.3304 21.2978 -165.8942 152.2643 53.2348 -75.4146 39.4077 49.7111 -8.9310 -10.8014 0.8460 -13.0143 9.1344 -1.0441 22.5265 11.5453 2.3068 3.4899 22.7186 -17.2457 5.9716 -1.3695 -0.0714 14.0972 17.4747 2.1773 15.6081 -37.9108 -5.3901 -2.2680 6.5283 38.2816
-0.0753 0.1466 -0.1560 -0.4982 -0.0507 -11.6313 6.7916 2.8323 0.1681 6.7916 2.8323 0.1681 -76.5436 -9.9878 7.8875 -38.8450 59.8498 -22.9454 42.0405 -49.1716 -19.9434 -140.1962 -62.7793 -24.9127 166.1665 162.3327 -75.9499 55.9284 30.5190 -54.3932 116.0337 -37.4306 23.8901 -159.6533 141.8809 54.8949 -71.4517 36.3846 49.1121 -8.8064 -11.9227 0.9214 -13.0012 10.0505 -1.1481 22.2142 12.3994 2.4434 2.5995 20.3497 -14.4102 5.9663 -1.8405 -0.0959 14.1087 16.9762 2.1160 15.4195 -38.6494 -5.4361 -1.7106 4.9841 37.8653
-0.0754 0.1475 -0.1719 -0.4908 -0.0279 -6.5112 6.7827 2.0365 0.1207 6.7827 2.0365 0.1207 -76.2823 -12.6191 9.9246 -40.8490 58.2974 -23.4649 43.7611 -47.7624 -20.1646 -142.0046 -76.8280 -30.5406 -173.9420 -172.4020 -77.1016 47.7010 29.0842 -60.8037 116.0561 -40.7961 26.1350 -154.2393 133.8512 56.4514 -71.7049 33.8816 45.7134 -8.6483 -13.0621 0.9920 -13.2202 9.6802 -1.1244 22.0762 11.4007 2.2310 1.4552 18.4043 -8.9649 6.1042 -1.4709 -0.0784 14.0130 16.5701 2.0506 15.3160 -39.2761 -5.4938 -1.4335 4.2250 37.4692
-0.0755 0.1482 -0.1777 -0.4879 -0.0169 -3.9792 6.7834 1.6508 0.0978 6.7834 1.6508 0.0978 -76.2800 -13.6571 10.7434 -41.9568 57.4167 -23.7190 44.4831 -47.2245 -20.2708 -142.7268 -81.5552 -32.4368 -164.9625 -161.0611 -76.7093 45.1073 27.9176 -61.8013 116.1754 -42.5158 27.2373 -151.9685 130.2617 56.6067 -71.2802 35.9708 48.7201 -8.6003 -13.4794 1.0182 -13.3012 9.5474 -1.1158 21.9503 10.9939 2.1384 1.0443 16.9386 -7.0046 6.2633 -1.3936 -0.0762 13.8424 16.3442 1.9974 14.9788 -39.6922 -5.4332 -1.1715 3.3952 38.0647
-0.0768 0.1481 -0.1770 -0.4980 -0.0173 -3.9904 6.5871 1.8272 0.1052 6.5871 1.8272 0.1052 -77.1005 -13.4392 10.7272 -42.5911 57.4670 -24.1256 44.6251 -47.0855 -20.2753 -141.6995 -81.9855 -33.5871 -157.8993 -150.4579 -73.0523 36.5169 24.3024 -66.2605 117.2233 -43.3085 27.2334 -147.9025 125.4751 58.3441 -69.5276 35.6085 49.6593 -8.6206 -13.0543 0.9882 -12.5614 10.1336 -1.1182 22.3419 11.6142 2.3011 1.6272 16.4285 -11.2364 6.4879 -1.4928 -0.0846 13.5632 16.4296 1.9671 14.6982 -39.7925 -5.3451 -1.0360 2.9202 39.0585
-0.0776 0.1478 -0.1795 -0.5233 -0.0148 -3.2433 6.3841 1.9075 0.1064 6.3841 1.9075 0.1064 -77.5602 -14.1901 11.4217 -43.1777 57.3501 -24.4230 45.1410 -46.9591 -20.4697 -144.2521 -80.3635 -30.4698 -146.4826 -125.9472 -61.1094 23.6378 19.3353 -78.2971 118.2513 -40.3559 24.7837 -144.3955 122.0528 60.2209 -69.5213 32.6018 45.6991 -8.7444 -13.0634 1.0031 -12.4335 10.7352 -1.1728 22.1415 12.2709 2.4098 1.6811 17.0354 -11.1896 6.5094 -1.6516 -0.0939 13.5074 15.8517 1.8891 14.2598 -39.9272 -5.2032 -0.6407 1.8278 38.6312
-0.0771 0.1478 -0.1825 -0.5503 -0.0145 -3.0197 6.1605 4.8892 0.2633 6.1605 4.8892 0.2633 -78.3773 -14.3558 11.7241 -41.3192 59.9528 -24.5404 42.9387 -49.1182 -20.3773 -146.9626 -53.4253 -16.9764 -147.1224 -84.0023 -29.7569 -110.2672 -98.0526 -77.4766 119.7072 -41.7889 25.0014 -143.6695 123.1979 62.4990 -67.5331 30.6656 44.5961 -9.4845 -12.8197 1.0679 -12.0092 10.9165 -1.1517 22.3817 12.1391 2.4103 1.6346 18.8932 -9.8012 6.3402 -1.4105 -0.0781 13.6181 15.6246 1.8771 14.1218 -39.8365 -5.1397 -0.0978 0.2829 38.1442
-0.0754 0.1475 -0.1928 -0.0000 -0.0000 0.0000 6.0150 5.8380 0.3070 6.0150 5.8380 0.3070 -78.0746 -16.4144 13.3410 -41.7767 59.7745 -24.7420 43.0469 -49.3953 -20.5607 -148.5771 -28.5255 -8.1803 -144.7547 -45.9922 -15.3556 -115.6482 -96.5861 -70.4415 122.2214 -43.4869 24.8222 -140.1489 120.3298 64.5908 -65.0365 28.3449 43.2180 -9.3696 -13.0082 1.0706 -12.0143 10.1128 -1.0669 22.7719 10.7780 2.1766 0.2815 18.2636 -1.7512 6.4648 2.2820 0.1289 13.8307 19.3151 2.3647 15.0708 -37.8124 -5.1881 2.4388 -5.8434 45.2788
-0.0715 0.1472 -0.1917 -0.0000 -0.0000 0.0000 5.9186 5.0674 0.2621 5.9186 5.0674 0.2621 -79.3346 -15.0616 12.5123 -42.8022 59.2786 -25.1421 43.3458 -49.0424 -20.5504 -148.0900 -10.0551 -2.8815 -140.3673 -43.7860 -16.4791 -99.9995 -81.4964 -71.7320 123.3059 -44.1060 24.6568 -134.8914 115.1869 66.3920 -64.4179 26.9611 41.6673 -9.2705 -13.3149 1.0844 -9.8122 10.9862 -0.9459 24.6573 9.5693 2.0961 1.1912 19.5037 -6.9228 7.4694 2.6067 0.1702 13.6802 21.2666 2.5803 14.9639 -36.9136 -5.0197 2.6890 -5.7127 50.3855
-0.0694 0.1470 -0.1920 -0.5486 0.0040 0.8359 5.8153 4.6161 0.2346 5.8153 4.6161 0.2346 -79.8216 -14.6035 12.2350 -43.2443 59.0572 -25.3084 43.2410 -49.0478 -20.4993 -147.8544 -11.6305 -3.3616 -138.5150 -53.6356 -21.6764 -92.3628 -76.3884 -74.1030 123.7765 -44.5774 24.7027 -132.5137 113.1216 67.3354 -63.4295 26.1455 41.1881 -9.0424 -13.4269 1.0666 -9.3026 11.7450 -0.9589 24.8255 10.0228 2.2114 0.7981 19.0542 -4.7529 8.0675 1.9748 0.1393 13.7005 20.7044 2.5143 14.8152 -37.2690 -5.0206 2.7980 -5.9841 50.0883
-0.0652 0.1468 -0.1899 -0.5379 0.0030 0.6365 5.7675 7.4033 0.3735 5.7675 7.4033 0.3735 -80.1068 -14.4030 12.1271 -41.5580 61.9617 -25.6683 43.0575 -48.0773 -19.9589 -149.2510 58.7989 17.6139 -139.1461 57.7844 23.2282 -115.2595 -84.4917 -59.8582 126.7907 -45.4689 23.7053 -129.7912 109.4022 66.9893 -62.2750 23.8282 38.5030 -8.8424 -12.2406 0.9500 -9.0658 13.0182 -1.0365 24.4540 11.9068 2.5891 1.1965 20.1518 -6.7259 7.9651 3.4400 0.2396 13.8054 22.0409 2.7012 15.3768 -35.5420 -4.9551 3.4023 -7.7549 47.3252
-0.0657 0.1460 -0.1829 -0.5359 0.0075 1.5940 5.7581 6.5064 0.3276 5.7581 6.5064 0.3276 -79.3420 -16.4225 13.6493 -41.7657 61.2994 -25.4782 42.6627 -49.3836 -20.3579 -148.1461 42.1372 12.5471 -133.1704 -8.9976 -3.9029 -93.1014 -69.9731 -67.0858 126.9163 -39.2308 20.1873 -124.8657 98.5105 62.4309 -63.0807 22.3437 35.6736 -8.6629 -12.0006 0.9123 -9.0840 11.3313 -0.9031 24.2978 10.6024 2.2886 0.9047 17.1957 -5.9781 8.0455 2.8298 0.1991 15.4335 21.2092 2.9066 17.6723 -35.2229 -5.6502 3.3852 -7.5950 47.9965
-0.0664 0.1460 -0.1801 -0.5753 0.0082 1.6304 5.6554 6.0738 0.3003 5.6554 6.0738 0.3003 -78.3123 -18.8423 15.3900 -44.9045 57.4641 -25.5288 47.6517 -44.7061 -20.5841 -146.0838 -4.0016 -1.2207 -131.0677 -43.9029 -20.7838 -84.7316 -56.2490 -60.7453 127.3536 -41.4213 21.1895 -118.8475 88.7784 60.0879 -62.0967 21.3651 34.7963 -8.2501 -11.8998 0.8613 -9.0805 13.3721 -1.0667 23.7444 14.2652 3.0138 0.7846 17.8174 -5.0024 8.0673 2.6305 0.1855 15.8512 21.0194 2.9589 17.6570 -34.8773 -5.5863 2.6780 -6.3298 45.8303
